Coordinates
version=1
nRows=8
nColumns=36
inDegrees=yes

Units are S.I. units (second, meters, Newtons, ...)
If the header above contains a line with 'inDegrees', this indicates whether rotational values are in degrees (yes) or radians (no).

endheader
time	pelvis_tilt	pelvis_list	pelvis_rotation	pelvis_tx	pelvis_ty	pelvis_tz	hip_flexion_r	hip_adduction_r	hip_rotation_r	knee_angle_r	knee_angle_r_beta	ankle_angle_r	subtalar_angle_r	mtp_angle_r	hip_flexion_l	hip_adduction_l	hip_rotation_l	knee_angle_l	knee_angle_l_beta	ankle_angle_l	subtalar_angle_l	mtp_angle_l	lumbar_extension	lumbar_bending	lumbar_rotation	arm_flex_r	arm_add_r	arm_rot_r	elbow_flex_r	pro_sup_r	arm_flex_l	arm_add_l	arm_rot_l	elbow_flex_l	pro_sup_l
      1.10000000	      1.93741305	      4.05699277	      0.13839127	      1.07138793	      0.89138200	     -0.24083735	     28.05999262	     -4.66799306	     -3.09269429	     25.06187686	      0.43741227	      1.70000333	    -18.85085789	     -7.36315571	    -14.31825834	      7.59238678	     -3.49265020	      3.97185501	      0.06932195	     16.35242559	     13.21491945	     -7.36315571	    -12.87159504	    -13.07103642	     -9.98087965	      0.31536942	     -9.66044639	      3.26791704	     29.72237762	     94.69795796	     11.42572890	    -10.03626686	      4.15532785	     32.66618017	     93.17694849
      1.11000000	      1.60479987	      4.23013611	      0.37398683	      1.08215446	      0.88965038	     -0.24062702	     28.56461243	     -4.78659553	     -3.15338190	     23.10197230	      0.40320548	      1.89561709	    -18.23600174	     -7.36381144	    -14.64684443	      7.64602566	     -3.48488320	      4.12447531	      0.07198567	     16.40552337	     13.39091760	     -7.36381144	    -12.53733651	    -13.00259290	    -10.06218368	      0.20228176	     -9.60454723	      3.10857889	     29.56309494	     94.67292837	     11.31027142	     -9.94850858	      4.11514616	     32.68278336	     93.19792343
      1.12000000	      1.80256481	      3.87752937	      0.65104555	      1.09301915	      0.88876746	     -0.24047929	     28.12035447	     -4.38235304	     -3.24549232	     20.75052049	      0.36216490	      2.81395192	    -15.73277177	     -7.36757089	    -15.45008084	      7.04932255	     -3.90753693	      4.51296124	      0.07876603	     16.97763841	     14.39274303	     -7.36757089	    -12.85905870	    -12.21755933	    -10.34943177	      0.60247452	     -9.44462826	      2.15149954	     28.92733932	     94.53345434	     11.17148470	     -9.76800361	      3.75808893	     32.62439267	     93.19911312
      1.13000000	      1.69011098	      3.78919882	      1.01545354	      1.10407344	      0.88734281	     -0.24045519	     28.15918333	     -4.34651419	     -3.42720482	     18.87379859	      0.32940993	      4.17045324	    -13.17150400	     -7.37431739	    -15.87739035	      6.70362665	     -4.41890530	      4.99256968	      0.08713678	     17.36602024	     15.86336104	     -7.37431739	    -12.82572870	    -11.72870084	    -10.57141341	      0.63809217	     -9.31316643	      1.25239177	     28.80459230	     94.45441051	     11.00044734	     -9.59928148	      3.47191072	     32.62128970	     93.12339126
      1.14000000	      1.61164948	      3.67002178	      1.39570287	      1.11522585	      0.88596833	     -0.24032373	     27.99206225	     -4.19310166	     -3.02755689	     16.87560865	      0.29453493	      4.68434009	    -11.90454802	     -7.37750185	    -16.34317987	      6.34909334	     -4.61108851	      5.45108419	      0.09513937	     17.59386332	     16.25770501	     -7.37750185	    -12.81615995	    -11.21827279	    -10.78822764	      0.75443133	     -9.21447817	      0.77636131	     28.44582148	     94.38191580	     10.85209894	     -9.48610713	      3.52097335	     32.48384799	     93.04784647
      1.15000000	      1.41794469	      3.56219743	      1.84981775	      1.12652672	      0.88443518	     -0.24026656	     27.87973055	     -4.08202843	     -2.38441747	     15.01713796	      0.26209850	      5.16343014	    -10.98840820	     -7.37879560	    -16.64209341	      5.98934312	     -4.56317946	      6.00803696	      0.10486003	     17.61489937	     16.52342756	     -7.37879560	    -12.66624676	    -10.68984164	    -11.07897642	      0.82003905	     -9.16057461	      0.44681973	     28.22970176	     94.31980046	     10.63082192	     -9.39143922	      3.59894493	     32.31499032	     92.99924368
      1.16000000	      1.29570239	      3.50416620	      2.37042088	      1.13804328	      0.88300561	     -0.24024455	     27.62335807	     -4.09238489	     -1.82349453	     13.30670073	      0.23224574	      5.72429057	    -10.28305312	     -7.37970914	    -16.98405297	      5.65228360	     -4.57363668	      6.62678581	      0.11565923	     17.64631167	     16.75127379	     -7.37970914	    -12.60226814	    -10.23121421	    -11.31201266	      0.82070774	     -9.07634807	      0.12556250	     27.95939510	     94.24683006	     10.45468502	     -9.25749599	      3.70179590	     32.17090939	     92.96154383
      1.17000000	      1.61733889	      3.24578593	      2.86819543	      1.14980247	      0.88212776	     -0.24023050	     26.76545216	     -3.91083616	     -1.32537997	     11.73343288	      0.20478704	      6.52538498	     -8.99027141	     -7.38368579	    -17.73204509	      5.00903244	     -5.30193335	      7.39872383	      0.12913209	     18.14173577	     17.99783711	     -7.38368579	    -13.05031637	     -9.45207222	    -11.46253777	      1.00467166	     -8.94323636	     -1.01226235	     27.57792150	     93.97934636	     10.41527914	     -9.11357869	      4.14040552	     31.87402832	     92.81401122
